<svg xmlns="http://www.w3.org/2000/svg" width="500" height="400" viewBox="0 0 500 400">
<rect fill="#F1F5F9" width="500" height="400" rx="10"/>
<rect fill="#FFFFFF" x="50" y="50" width="400" height="300" rx="5"/>
<path fill="#e28c1d" d="M230,100c0,0,40,0,40,0s20,0,20,20s0,20,0,20s0,40-40,40s-50,0-50,0s-20,0-20-20s0-20,0-20s0-40,50-40V100z"/>
<path fill="#ff9f20" d="M300,180c0,0,40,0,40,0s20,0,20,20s0,20,0,20s0,40-40,40s-50,0-50,0s-20,0-20-20s0-20,0-20s0-40,50-40V180z"/>
<circle fill="#e28c1d" cx="150" cy="150" r="50"/>
<text x="150" y="150" text-anchor="middle" dy=".3em" fill="#FFFFFF" font-family="Arial, sans-serif" font-size="40">10+</text>
<circle fill="#e28c1d" cx="100" cy="280" r="50"/>
<text x="100" y="280" text-anchor="middle" dy=".3em" fill="#FFFFFF" font-family="Arial, sans-serif" font-size="40">100+</text>
<circle fill="#e28c1d" cx="300" cy="280" r="50"/>
<text x="300" y="280" text-anchor="middle" dy=".3em" fill="#FFFFFF" font-family="Arial, sans-serif" font-size="40">500+</text>
</svg>